<svg width="62" height="62" viewBox="0 0 62 62" fill="none" xmlns="http://www.w3.org/2000/svg">
<path d="M20.328 59.5036C18.9617 59.5036 17.6715 58.8965 16.7985 57.7959L3.51614 41.2874C2.64321 40.1867 2.30176 38.7828 2.64321 37.4163L7.38701 16.8092C7.69055 15.4429 8.60139 14.3423 9.85392 13.7352L29.0568 4.5509C29.6641 4.24759 30.3473 4.0957 31.0304 4.0957C31.7135 4.0957 32.3964 4.24736 33.0038 4.55113L52.2069 13.6973C53.4592 14.3043 54.37 15.405 54.6736 16.7713L59.4174 37.3784C59.7211 38.7446 59.4174 40.1488 58.5447 41.2494L45.2618 57.758C44.3889 58.8205 43.0987 59.4657 41.7324 59.4657L20.3284 59.5036H20.328Z" fill="#326DE6"/>
<path d="M30.9932 5.0494C31.5247 5.0494 32.0559 5.16314 32.5493 5.39086L51.7524 14.537C52.7391 15.0303 53.498 15.9412 53.7258 17.0039L58.4696 37.611C58.7352 38.7116 58.4696 39.8502 57.7485 40.7229L44.4659 57.2316C43.7827 58.1044 42.72 58.5977 41.6196 58.5977H20.3291C19.2285 58.5977 18.166 58.1044 17.4829 57.2316L4.20022 40.7229C3.51708 39.8502 3.25123 38.7116 3.47917 37.611L8.22297 17.0039C8.48859 15.9033 9.20964 14.9924 10.1963 14.537L29.3997 5.35317C29.893 5.16337 30.4622 5.04963 30.9934 5.04963L30.9932 5.0494ZM30.9932 3.26562C30.1963 3.26562 29.3995 3.45542 28.6403 3.79688L9.43735 12.9812C7.9192 13.7022 6.8567 15.0303 6.4771 16.6622L1.73331 37.2696C1.35394 38.9014 1.73331 40.5713 2.79604 41.8996L16.0787 58.4081C17.1035 59.6983 18.6593 60.4194 20.2912 60.4194H41.5814C43.2133 60.4194 44.7694 59.6983 45.794 58.4081L59.0769 41.8994C60.1394 40.6092 60.519 38.9014 60.1394 37.2693L55.3956 16.6622C55.0162 15.0303 53.9535 13.7022 52.4355 12.9812L33.3082 3.79665C32.5872 3.45542 31.7903 3.26562 30.9932 3.26562Z" fill="white"/>
<path d="M50.234 35.9765C50.1961 35.9765 50.1961 35.9765 50.234 35.9765H50.1961C50.1582 35.9765 50.1202 35.9765 50.1202 35.9386C50.0444 35.9386 49.9686 35.9007 49.8925 35.9007C49.6269 35.8627 49.3992 35.8248 49.1715 35.8248C49.0575 35.8248 48.9438 35.8248 48.7919 35.7867H48.754C47.9571 35.7109 47.3119 35.635 46.7046 35.4452C46.4389 35.3313 46.3631 35.1796 46.2871 35.0277C46.2871 34.9898 46.2492 34.9898 46.2492 34.9519L45.7558 34.8002C45.9889 33.015 45.8989 31.2023 45.4902 29.4489C45.0758 27.6809 44.3567 25.9986 43.365 24.4774L43.7446 24.1359V24.0601C43.7446 23.8703 43.7825 23.6805 43.9341 23.4907C44.3895 23.0732 44.9589 22.7318 45.6421 22.3143C45.7558 22.2384 45.8696 22.2005 45.9835 22.1245C46.2112 22.0107 46.401 21.897 46.6287 21.7451C46.6667 21.7072 46.7425 21.6693 46.8185 21.5934C46.8565 21.5553 46.8944 21.5553 46.8944 21.5174C47.4256 21.062 47.5396 20.303 47.16 19.8094C46.9702 19.5438 46.6287 19.3922 46.2871 19.3922C45.9838 19.3922 45.7179 19.5059 45.4523 19.6957L45.3764 19.7715C45.3006 19.8094 45.2625 19.8855 45.1867 19.9234C44.9969 20.1132 44.845 20.2649 44.6933 20.4547C44.6175 20.5305 44.5417 20.6444 44.4277 20.7203C43.8962 21.2897 43.4029 21.7451 42.9095 22.0865C42.7958 22.1624 42.6821 22.2005 42.5681 22.2005C42.4923 22.2005 42.4162 22.2005 42.3404 22.1624H42.2645L41.8089 22.4661C41.3156 21.9349 40.7843 21.4795 40.2531 21.024C37.9655 19.2359 35.2124 18.1426 32.3213 17.874L32.2834 17.3807L32.2076 17.3048C32.0936 17.1909 31.9419 17.0771 31.9038 16.8115C31.8659 16.2042 31.9419 15.5211 32.0178 14.7621V14.7242C32.0178 14.6102 32.0557 14.4586 32.0936 14.3446C32.1315 14.1171 32.1694 13.8892 32.2076 13.6235V13.2821C32.2076 12.5989 31.6761 12.0298 31.0311 12.0298C30.7273 12.0298 30.4238 12.1814 30.1961 12.4092C29.9686 12.6369 29.8546 12.9404 29.8546 13.2821V13.5856C29.8546 13.8512 29.8925 14.079 29.9684 14.3067C30.0063 14.4206 30.0063 14.5344 30.0442 14.6863V14.7242C30.12 15.4831 30.234 16.1663 30.1582 16.7736C30.1202 17.0392 29.9684 17.1529 29.8546 17.2669L29.7788 17.3427L29.7406 17.8361C29.0575 17.9119 28.3744 17.9877 27.6912 18.1396C24.7691 18.7848 22.1885 20.2651 20.1772 22.3901L19.7976 22.1245H19.7218C19.646 22.1245 19.5699 22.1624 19.4941 22.1624C19.3801 22.1624 19.2664 22.1245 19.1524 22.0486C18.6591 21.7072 18.1657 21.2136 17.6345 20.6444C17.5587 20.5686 17.4828 20.4547 17.3689 20.3788C17.217 20.189 17.0651 20.0371 16.8753 19.8476C16.8374 19.8094 16.7616 19.7717 16.6857 19.6957C16.6478 19.6578 16.6099 19.6578 16.6099 19.6199C16.3748 19.4256 16.0799 19.3183 15.7749 19.3161C15.4332 19.3161 15.0917 19.468 14.9019 19.7336C14.5223 20.2269 14.6363 20.9859 15.1676 21.4413C15.2055 21.4413 15.2055 21.4795 15.2434 21.4795C15.3192 21.5174 15.3574 21.5932 15.4332 21.6311C15.6609 21.7828 15.8507 21.8967 16.0784 22.0107C16.1924 22.0486 16.3061 22.1245 16.4201 22.2005C17.103 22.6178 17.6724 22.9595 18.1278 23.377C18.3176 23.5666 18.3176 23.7564 18.3176 23.9462V24.022L18.697 24.3637C18.6212 24.4774 18.5453 24.5535 18.5072 24.6672C16.6097 27.6654 15.8886 31.1948 16.382 34.6863L15.8886 34.8379C15.8886 34.8761 15.8507 34.8761 15.8507 34.9138C15.7749 35.0656 15.6609 35.2175 15.4332 35.3313C14.864 35.5211 14.1809 35.5971 13.384 35.673H13.3459C13.2321 35.673 13.0803 35.673 12.9665 35.7109C12.7388 35.7109 12.5111 35.7488 12.2455 35.7867C12.1696 35.7867 12.0938 35.8248 12.0178 35.8248C11.9798 35.8248 11.9419 35.8248 11.9038 35.8627C11.2206 36.0144 10.8031 36.6596 10.9171 37.2667C11.0311 37.7982 11.5244 38.1399 12.1315 38.1399C12.2455 38.1399 12.3213 38.1399 12.4353 38.1017C12.4732 38.1017 12.5111 38.1017 12.5111 38.0638C12.5869 38.0638 12.6627 38.0259 12.7386 38.0259C13.0044 37.9501 13.1942 37.8742 13.4219 37.7603C13.5357 37.7224 13.6494 37.6463 13.7634 37.6086H13.8013C14.5223 37.3428 15.1676 37.115 15.7749 37.0392H15.8507C16.0784 37.0392 16.2303 37.153 16.344 37.229C16.382 37.229 16.382 37.2669 16.4199 37.2669L16.9513 37.1911C17.8622 39.9992 19.6078 42.5041 21.9229 44.3258C22.4541 44.743 22.9854 45.0847 23.5548 45.4264L23.327 45.9195C23.327 45.9577 23.365 45.9577 23.365 45.9953C23.4408 46.1472 23.5166 46.337 23.4408 46.6026C23.2133 47.172 22.8716 47.7412 22.4541 48.3864V48.4243C22.3783 48.5383 22.3025 48.6141 22.2266 48.7279C22.0747 48.9177 21.9608 49.1075 21.8089 49.3352C21.771 49.3731 21.7331 49.4489 21.6951 49.525C21.6951 49.5629 21.6572 49.6008 21.6572 49.6008C21.3537 50.246 21.5814 50.9671 22.1506 51.2327C22.3022 51.3085 22.4541 51.3467 22.606 51.3467C23.0614 51.3467 23.5168 51.0429 23.7445 50.6254C23.7445 50.5875 23.7825 50.5496 23.7825 50.5496C23.8204 50.4737 23.8583 50.3979 23.8962 50.3598C24.0102 50.0941 24.0481 49.9043 24.1239 49.6766L24.2379 49.3352C24.5035 48.5762 24.6933 47.9689 25.0348 47.4377C25.1864 47.21 25.3764 47.172 25.5281 47.096C25.566 47.096 25.566 47.096 25.6039 47.0581L25.8698 46.5647C27.5396 47.2099 29.3613 47.5514 31.1827 47.5514C32.2834 47.5514 33.4219 47.4377 34.4847 47.172C35.1534 47.0225 35.8124 46.8324 36.458 46.6026L36.6855 47.0202C36.7236 47.0202 36.7236 47.0202 36.7616 47.0581C36.9514 47.096 37.103 47.172 37.2549 47.3997C37.5584 47.931 37.7861 48.5762 38.0518 49.2973V49.3352L38.1657 49.6766C38.2416 49.9043 38.2795 50.1321 38.3932 50.3598C38.4314 50.4356 38.4693 50.4737 38.5072 50.5496C38.5072 50.5875 38.5453 50.6254 38.5453 50.6254C38.7728 51.0808 39.2282 51.3467 39.6837 51.3467C39.8355 51.3467 39.9874 51.3085 40.1391 51.2327C40.4047 51.081 40.6324 50.8531 40.7085 50.5496C40.7843 50.246 40.7843 49.9043 40.6327 49.6008C40.6327 49.5629 40.5945 49.5629 40.5945 49.525C40.5566 49.4492 40.5187 49.3733 40.4808 49.3352C40.3668 49.1075 40.2151 48.9177 40.0633 48.7279C39.9874 48.6141 39.9116 48.5383 39.8358 48.4246V48.3864C39.418 47.7412 39.0384 47.172 38.8489 46.6026C38.773 46.337 38.8489 46.1854 38.8868 45.9956C38.8868 45.9577 38.9247 45.9577 38.9247 45.9197L38.7349 45.4643C40.7464 44.2878 42.4541 42.6178 43.7446 40.5686C44.4277 39.5059 44.9589 38.3294 45.3383 37.153L45.7937 37.2288C45.8319 37.2288 45.8319 37.1909 45.8696 37.1909C46.0214 37.115 46.1354 37.0013 46.3631 37.0013H46.439C47.0463 37.0771 47.6912 37.3046 48.4125 37.5705H48.4504C48.5642 37.6084 48.6779 37.6842 48.7919 37.7221C49.0196 37.8361 49.2094 37.9119 49.475 37.988C49.5509 37.988 49.6267 38.0259 49.7027 38.0259C49.7407 38.0259 49.7786 38.0259 49.8165 38.0638C49.9304 38.1017 50.0063 38.1017 50.1202 38.1017C50.6894 38.1017 51.1827 37.7224 51.3346 37.229C51.3346 36.7736 50.9171 36.1663 50.234 35.9767V35.9765ZM32.6628 34.1169L30.9929 34.914L29.3231 34.1169L28.9059 32.3333L30.0442 30.8912H31.9038L33.0423 32.3333L32.663 34.1169H32.6628ZM42.5681 30.1702C42.8625 31.4251 42.9522 32.7194 42.8337 34.0029L37.0272 32.3333C36.4959 32.1817 36.1924 31.6502 36.3061 31.1189C36.344 30.9671 36.4201 30.8152 36.5338 30.7014L41.126 26.5647C41.771 27.6274 42.2643 28.8421 42.5681 30.1702ZM39.3043 24.2878L34.3328 27.8172C33.9153 28.0829 33.3459 28.0068 33.0044 27.5895C32.8907 27.4756 32.8528 27.3237 32.8146 27.172L32.4732 20.9859C35.0578 21.2835 37.4655 22.4473 39.3043 24.2878ZM28.2985 21.1755C28.7161 21.0996 29.0954 21.0238 29.5129 20.948L29.1715 27.0199C29.1336 27.5512 28.7161 28.0066 28.1467 28.0066C27.995 28.0066 27.8052 27.9687 27.6912 27.8928L22.6439 24.2878C24.2 22.7318 26.1354 21.6688 28.2985 21.1755ZM20.8222 26.5645L25.3383 30.5872C25.7558 30.9289 25.7937 31.5739 25.4523 31.9914C25.3383 32.1431 25.1866 32.257 24.9968 32.2952L19.1145 34.0029C18.8868 31.4223 19.4559 28.8037 20.8222 26.5645ZM19.7974 36.8492L25.8319 35.8244C26.3252 35.7865 26.7806 36.1281 26.8944 36.6215C26.9323 36.849 26.9323 37.039 26.8565 37.2288L24.5414 42.8074C22.4162 41.4411 20.7082 39.3538 19.7974 36.8492ZM33.6497 44.4014C32.7767 44.5912 31.9038 44.7049 30.9929 44.7049C29.6648 44.7049 28.3744 44.4774 27.1602 44.0978L30.1582 38.6709C30.4617 38.3292 30.955 38.1775 31.3725 38.4053C31.5497 38.5138 31.7044 38.6555 31.828 38.8225L34.7501 44.0978C34.4086 44.2116 34.029 44.2876 33.6494 44.4014H33.6497ZM41.0499 39.1263C40.1012 40.6442 38.8486 41.8586 37.4068 42.8074L35.0159 37.0767C34.902 36.6215 35.0918 36.1281 35.5472 35.9002C35.6988 35.8244 35.8886 35.7865 36.0784 35.7865L42.1506 36.8113C41.9229 37.6461 41.5433 38.4053 41.0499 39.1263Z" fill="white"/>
</svg>
