<?xml version="1.0" encoding="UTF-8"?>
<svg version="1.1" xmlns="http://www.w3.org/2000/svg" width="1301" height="800">
<path d="M0 0 C4.96850266 3.83136811 9.3571753 7.87691637 13 13 C13.65484375 12.35933594 14.3096875 11.71867187 14.984375 11.05859375 C33.28555361 -6.28616733 52.71016879 -10.67725174 77.32421875 -10.3125 C94.11221588 -9.74748537 109.83093185 -3.84017441 122 8 C134.90232454 22.74551376 139.48069655 39.91837292 139.40405273 59.19995117 C139.41434761 61.0538446 139.41434761 61.0538446 139.42485046 62.94519043 C139.43985396 66.28555697 139.44166091 69.62535795 139.43590808 72.96571517 C139.43278972 75.76463326 139.43893606 78.56350219 139.44494683 81.36241323 C139.45890735 87.95885544 139.45749525 94.55516782 139.44604492 101.15161133 C139.43450441 107.95026109 139.44875713 114.7485191 139.4754414 121.54711741 C139.49756869 127.40475108 139.50424453 133.2622614 139.49836498 139.1199339 C139.49499517 142.61033234 139.49741488 146.1004782 139.51461601 149.59084129 C139.53290152 153.46851565 139.51892924 157.34570127 139.50170898 161.22338867 C139.51137695 162.37815201 139.52104492 163.53291534 139.53100586 164.72267151 C139.52117172 165.77516083 139.51133759 166.82765015 139.50120544 167.91203308 C139.50099616 168.82762591 139.50078688 169.74321875 139.50057125 170.68655682 C139 173 139 173 137.11806583 174.7941885 C134.53897459 176.26246103 132.88629273 176.38020514 129.92773438 176.38818359 C128.91988892 176.39764008 127.91204346 176.40709656 126.87365723 176.4168396 C125.25010315 176.40773056 125.25010315 176.40773056 123.59375 176.3984375 C121.91847229 176.40274277 121.91847229 176.40274277 120.20935059 176.40713501 C117.84903455 176.40917566 115.48870161 176.40364576 113.12841797 176.39111328 C109.51361307 176.37506045 105.89992634 176.39096278 102.28515625 176.41015625 C99.99218503 176.40817382 97.69921451 176.40433015 95.40625 176.3984375 C94.32388062 176.40451019 93.24151123 176.41058289 92.12634277 176.4168396 C91.11849731 176.40738312 90.11065186 176.39792664 89.07226562 176.38818359 C88.18720337 176.38579681 87.30214111 176.38341003 86.39025879 176.38095093 C83.23157679 175.87753145 82.06054737 175.50346551 80 173 C79.39043934 169.76382738 79.45746495 166.55570003 79.48583984 163.27124023 C79.47871475 162.27249374 79.47158966 161.27374725 79.46424866 160.24473572 C79.44490246 156.93248959 79.45326278 153.62087803 79.4609375 150.30859375 C79.45103316 148.00512253 79.43909292 145.70165924 79.42520142 143.39820862 C79.39275984 137.32091934 79.38244192 131.24381021 79.37835693 125.16644287 C79.36962228 115.46383347 79.3339404 105.761373 79.2861824 96.05888557 C79.2736436 92.67668696 79.2743522 89.29467738 79.27645874 85.91246033 C79.26987234 83.81981261 79.26286489 81.72716615 79.25537109 79.63452148 C79.25949509 78.70271057 79.26361908 77.77089966 79.26786804 76.81085205 C79.2047759 66.44385092 77.8929906 57.24244017 70.55078125 49.46484375 C64.66885824 44.16956923 58.72580778 43.52529141 51.09375 43.6953125 C42.81086195 44.51105147 37.351883 47.9582523 31.69140625 53.90234375 C26.90299118 59.84086313 26.56905325 64.03242764 26.61523438 71.49414062 C26.6098616 72.54997849 26.60448883 73.60581635 26.59895325 74.69364929 C26.58917917 76.98314078 26.58622997 79.27266929 26.58930969 81.56217957 C26.5937856 85.18506574 26.57979373 88.80746294 26.56091309 92.43029785 C26.52412476 100.1201906 26.51041725 107.81003219 26.5 115.5 C26.48792875 124.41093759 26.46643755 133.32163713 26.41999817 142.23246765 C26.40640614 145.8027373 26.41060272 149.3727077 26.41540527 152.94299316 C26.40606607 155.13061914 26.39589761 157.31824179 26.38476562 159.50585938 C26.39398796 160.99595772 26.39398796 160.99595772 26.40339661 162.51615906 C26.35921051 167.45472116 26.32279585 171.04279463 23 175 C20.54493065 176.22753468 18.90023989 176.14661778 16.15478516 176.17700195 C14.64279037 176.19625481 14.64279037 176.19625481 13.10025024 176.21589661 C12.00755829 176.22328354 10.91486633 176.23067047 9.7890625 176.23828125 C8.6693808 176.246353 7.5496991 176.25442474 6.39608765 176.26274109 C4.02383985 176.27658834 1.65157207 176.28730761 -0.72070312 176.29516602 C-4.35324675 176.31239681 -7.98488472 176.35628057 -11.6171875 176.40039062 C-13.91926413 176.41051565 -16.2213485 176.41903235 -18.5234375 176.42578125 C-19.61208099 176.44328934 -20.70072449 176.46079742 -21.82235718 176.47883606 C-23.34380844 176.47444771 -23.34380844 176.47444771 -24.89599609 176.4699707 C-25.78709076 176.47583694 -26.67818542 176.48170319 -27.59628296 176.48774719 C-30 176 -30 176 -32.28884888 174.58853149 C-34.93319311 170.58831887 -34.53851444 166.80845052 -34.48242188 162.11352539 C-34.48633438 161.10969818 -34.49024689 160.10587097 -34.49427795 159.07162476 C-34.50025711 156.89070832 -34.49707549 154.70975205 -34.4858551 152.52885628 C-34.46860007 149.06758033 -34.4761006 145.60714037 -34.4901123 142.14585876 C-34.51977701 133.54169339 -34.50662303 124.93768636 -34.49493408 116.33349609 C-34.48669764 109.0744458 -34.49482026 101.81575969 -34.52406311 94.55676079 C-34.53111217 91.16399295 -34.51452877 87.7718817 -34.49694824 84.37916565 C-33.96038243 66.47894354 -33.96038243 66.47894354 -41.5 50.875 C-42.325 50.25625 -43.15 49.6375 -44 49 C-44.639375 48.443125 -45.27875 47.88625 -45.9375 47.3125 C-52.14222475 43.36403879 -58.8567606 43.27185044 -66 44 C-74.22399008 46.1493057 -81.51974599 51.98677897 -86.14239693 59.07684135 C-87.92137384 63.06616339 -87.52189753 67.40800248 -87.46655273 71.69946289 C-87.46885895 72.76520035 -87.47116516 73.83093781 -87.47354126 74.92897034 C-87.47616669 77.23702193 -87.46974581 79.54509773 -87.45528984 81.85310555 C-87.43339653 85.50555833 -87.43712252 89.15718329 -87.44776917 92.80967712 C-87.46943347 101.87804949 -87.45203865 110.94623729 -87.42626953 120.0145874 C-87.40489091 127.68297956 -87.40288526 135.35084113 -87.42918587 143.01922417 C-87.43354338 146.6185487 -87.40887908 150.21695664 -87.38365173 153.81617737 C-87.3889216 156.02076632 -87.39564345 158.22535243 -87.40405273 160.42993164 C-87.381688 161.93169952 -87.381688 161.93169952 -87.35887146 163.46380615 C-87.40596394 168.03968365 -87.50906976 170.30764079 -90.21313477 174.1211853 C-93.21870989 176.14744716 -94.6092552 176.62720726 -98.18579102 176.63110352 C-99.19356094 176.64363663 -100.20133087 176.65616974 -101.23963928 176.66908264 C-102.31684738 176.65582443 -103.39405548 176.64256622 -104.50390625 176.62890625 C-105.61934311 176.63131821 -106.73477997 176.63373016 -107.88401794 176.63621521 C-110.23838868 176.63523704 -112.5927825 176.62185088 -114.94702148 176.59692383 C-118.55336448 176.56258698 -122.15726127 176.57627548 -125.76367188 176.59570312 C-128.05209378 176.58880555 -130.34050935 176.57913398 -132.62890625 176.56640625 C-133.70813858 176.57136612 -134.78737091 176.57632599 -135.89930725 176.58143616 C-136.90392502 176.56559982 -137.90854279 176.54976349 -138.94360352 176.53344727 C-140.26667259 176.5241494 -140.26667259 176.5241494 -141.61647034 176.5146637 C-144.89443368 175.80686939 -145.94139099 174.63464535 -148 172 C-148.50057125 168.80155945 -148.50057125 168.80155945 -148.50120544 164.94018555 C-148.50673984 164.229052 -148.51227424 163.51791845 -148.51797634 162.7852354 C-148.53159111 160.40204114 -148.51661018 158.01989271 -148.50170898 155.63671875 C-148.50549188 153.92835037 -148.51099168 152.21998505 -148.51808167 150.5116272 C-148.53205743 145.87111748 -148.52085168 141.23097765 -148.50437045 136.59048843 C-148.49053268 131.736999 -148.49697858 126.88353133 -148.50050354 122.0300293 C-148.50320667 113.87900828 -148.48972121 105.72813444 -148.46655273 97.57714844 C-148.43994235 88.14992486 -148.43819552 78.72294738 -148.4499411 69.29569912 C-148.46071576 60.23157537 -148.45453426 51.16754074 -148.44038582 42.10342407 C-148.43462331 38.24384457 -148.43471078 34.38433023 -148.43945122 30.52474976 C-148.44421928 25.98076221 -148.43412647 21.43704456 -148.41249657 16.89310837 C-148.40692618 15.22418503 -148.40646571 13.55523577 -148.41144943 11.88631058 C-148.41739372 9.61051114 -148.40491451 7.33553927 -148.38768005 5.05981445 C-148.38525016 3.78556107 -148.38282026 2.51130768 -148.38031673 1.19844055 C-147.97545528 -2.20641958 -147.42941511 -3.62242132 -145 -6 C-142.609375 -6.50793457 -142.609375 -6.50793457 -139.75 -6.51757812 C-138.67878906 -6.53018677 -137.60757812 -6.54279541 -136.50390625 -6.55578613 C-135.34761719 -6.54768921 -134.19132812 -6.53959229 -133 -6.53125 C-131.81277344 -6.5350769 -130.62554687 -6.53890381 -129.40234375 -6.54284668 C-126.89061638 -6.54557036 -124.37886087 -6.5381775 -121.8671875 -6.52148438 C-118.01498381 -6.50008324 -114.16464544 -6.52127281 -110.3125 -6.546875 C-107.87499587 -6.54423181 -105.4374929 -6.53910701 -103 -6.53125 C-101.26556641 -6.54339539 -101.26556641 -6.54339539 -99.49609375 -6.55578613 C-97.88927734 -6.53687317 -97.88927734 -6.53687317 -96.25 -6.51757812 C-95.30640625 -6.51439575 -94.3628125 -6.51121338 -93.390625 -6.50793457 C-91 -6 -91 -6 -89.20385742 -4.15612793 C-87.61754477 -1.31501655 -87.48832611 1.01479954 -87.3125 4.25 C-87.21388672 5.86648438 -87.21388672 5.86648438 -87.11328125 7.515625 C-87.05720703 8.74539063 -87.05720703 8.74539063 -87 10 C-86.62230469 9.57589844 -86.24460937 9.15179688 -85.85546875 8.71484375 C-63.83779796 -14.74660874 -26.56416943 -16.1492792 0 0 Z " fill="#000000" transform="translate(563,343)"/>
<path d="M0 0 C0.98782471 -0.01268417 1.97564941 -0.02536835 2.9934082 -0.03843689 C4.58415161 -0.03403343 4.58415161 -0.03403343 6.20703125 -0.02954102 C7.84901489 -0.03740379 7.84901489 -0.03740379 9.52416992 -0.04542542 C11.83739372 -0.05184577 14.15065016 -0.05050848 16.46386719 -0.04199219 C20.00644915 -0.0334787 23.54742095 -0.06225112 27.08984375 -0.09399414 C29.3372391 -0.09560612 31.58463731 -0.09502869 33.83203125 -0.09204102 C34.89252686 -0.10327499 35.95302246 -0.11450897 37.0456543 -0.12608337 C38.033479 -0.11670242 39.02130371 -0.10732147 40.0390625 -0.09765625 C41.34000854 -0.097407 41.34000854 -0.097407 42.66723633 -0.09715271 C46.06842125 0.6275406 47.08719866 1.48524008 49.01953125 4.40405273 C49.5940916 7.73871424 49.52430635 11.0290647 49.47363281 14.4050293 C49.47421692 15.41998474 49.47480103 16.43494019 49.47540283 17.48065186 C49.47261595 20.83567495 49.44149438 24.18980982 49.41015625 27.54467773 C49.40269604 29.87066157 49.39700207 32.19665168 49.39300537 34.52264404 C49.3777319 40.64499256 49.33843478 46.76696159 49.29418945 52.88916016 C49.25327401 59.13625962 49.23500229 65.3834204 49.21484375 71.63061523 C49.17194263 83.88859448 49.10367016 96.14629205 49.01953125 108.40405273 C50.30692193 107.27996336 51.59397738 106.15549005 52.88088989 105.03085327 C53.59765459 104.40470312 54.31441929 103.77855297 55.05290413 103.13342857 C57.052545 101.37502172 59.0151869 99.58591014 60.94921875 97.75561523 C61.59383057 97.1477417 62.23844238 96.53986816 62.90258789 95.91357422 C63.5599292 95.29168213 64.21727051 94.66979004 64.89453125 94.02905273 C69.9992485 89.22022708 75.1385145 84.46414092 80.375 79.79858398 C84.58532247 75.98628313 88.7156855 72.08783685 92.84399414 68.18701172 C93.45621826 67.61152588 94.06844238 67.03604004 94.69921875 66.44311523 C95.24304199 65.92958496 95.78686523 65.41605469 96.34716797 64.88696289 C96.89904785 64.39760254 97.45092773 63.90824219 98.01953125 63.40405273 C98.58636124 62.8868013 99.15319122 62.36954987 99.73719788 61.83662415 C102.71222847 59.96926163 104.70831029 60.01717619 108.20922852 60 C110.08621178 59.98097374 110.08621178 59.98097374 112.00111389 59.96156311 C113.36272345 59.96361425 114.72433186 59.96660203 116.0859375 59.97045898 C117.48551182 59.96589702 118.88508389 59.9605914 120.28465271 59.95457458 C123.2141939 59.94564882 126.14346239 59.94806143 129.07299805 59.95800781 C132.82830098 59.96951528 136.58266608 59.94925764 140.3378458 59.92009068 C143.22635375 59.90175455 146.11463565 59.90201552 149.00318718 59.9077282 C150.3878912 59.90788163 151.77261032 59.90181859 153.15725899 59.88943672 C155.09119651 59.87457519 157.02528851 59.88780871 158.95922852 59.90234375 C160.60992088 59.902593 160.60992088 59.902593 162.29396057 59.90284729 C165.01953125 60.40405273 165.01953125 60.40405273 166.88877869 62.22984314 C168.71312166 65.7376875 168.18120396 67.6630728 167.01953125 71.40405273 C164.82584079 74.19493524 162.25651938 76.45618574 159.58203125 78.77905273 C158.85209961 79.43679688 158.12216797 80.09454102 157.37011719 80.7722168 C155.26578086 82.66416327 153.1442843 84.53511049 151.01953125 86.40405273 C149.26811679 87.98582132 147.51783554 89.56884721 145.76953125 91.15405273 C145.00125 91.83983398 144.23296875 92.52561523 143.44140625 93.23217773 C140.61400329 95.76771974 137.81554719 98.33404882 135.01953125 100.90405273 C127.7957527 107.53643784 120.57790353 114.15260362 113.01953125 120.40405273 C117.85340266 130.3599071 123.08088589 140.04142563 128.49755859 149.68969727 C131.45428096 154.96285082 134.3934343 160.24578284 137.33203125 165.52905273 C137.97317871 166.68139404 138.61432617 167.83373535 139.27490234 169.02099609 C143.99052746 177.50733105 148.62000717 186.03808163 153.22338867 194.58569336 C157.63896842 202.75940235 162.18935702 210.85290905 166.79541016 218.9206543 C174.85669846 233.06550099 174.85669846 233.06550099 174.01953125 239.40405273 C170.95841218 242.48645443 168.55327545 242.78536455 164.3046875 242.80810547 C163.15669678 242.82078964 162.00870605 242.83347382 160.82592773 242.84654236 C159.59044189 242.84360672 158.35495605 242.84067108 157.08203125 242.83764648 C155.80980713 242.84288834 154.53758301 242.84813019 153.22680664 242.85353088 C150.53663194 242.85995521 147.84730527 242.8600473 145.15722656 242.85009766 C141.71362839 242.83860068 138.27105456 242.85883211 134.82759094 242.88801479 C131.53739906 242.91079138 128.24728352 242.90391003 124.95703125 242.90014648 C123.72154541 242.91138046 122.48605957 242.92261444 121.21313477 242.93418884 C120.06514404 242.92480789 118.91715332 242.91542694 117.734375 242.90576172 C116.22025024 242.90551247 116.22025024 242.90551247 114.67553711 242.90525818 C111.27319389 242.26321406 110.16881656 241.06874994 108.01953125 238.40405273 C106.8465271 236.57029724 106.8465271 236.57029724 105.88818359 234.67138672 C105.5203476 233.95220566 105.1525116 233.2330246 104.77352905 232.49205017 C104.1953392 231.33280785 104.1953392 231.33280785 103.60546875 230.15014648 C103.19092438 229.33522232 102.77638 228.52029816 102.34927368 227.68067932 C101.02367976 225.07128416 99.70874773 222.45669369 98.39453125 219.84155273 C96.67572027 216.44312718 94.95297955 213.04669793 93.23046875 209.65014648 C92.80186554 208.80344894 92.37326233 207.9567514 91.93167114 207.08439636 C85.30395983 194.01356433 78.445965 181.06355803 71.39453125 168.21655273 C70.86730469 167.25297852 70.34007812 166.2894043 69.796875 165.29663086 C68.53911406 162.99835859 67.28003017 160.70082408 66.01953125 158.40405273 C65.36726562 158.99573242 64.715 159.58741211 64.04296875 160.19702148 C63.16898438 160.9872168 62.295 161.77741211 61.39453125 162.59155273 C60.53601563 163.36885742 59.6775 164.14616211 58.79296875 164.94702148 C56.01953125 167.40405273 56.01953125 167.40405273 52.88769531 169.13354492 C50.49621757 171.14445673 50.04689038 172.25259456 49.48269653 175.37593079 C49.29304234 179.32073462 49.29459444 183.24261324 49.35546875 187.18920898 C49.35437434 188.65222239 49.35006322 190.11523661 49.34268188 191.57823181 C49.32929331 195.42227474 49.34807831 199.26538085 49.37713623 203.10931396 C49.42255963 209.26474198 49.43811161 215.41966846 49.41759109 221.57522392 C49.41796373 223.72277792 49.44371655 225.86901911 49.47128296 228.01637268 C49.47075424 229.97376625 49.47075424 229.97376625 49.47021484 231.97070312 C49.48403702 233.69348228 49.48403702 233.69348228 49.49813843 235.45106506 C49.01953125 238.40405273 49.01953125 238.40405273 47.30264282 240.77478027 C44.62227036 242.68754577 43.30288205 242.90513639 40.0390625 242.90576172 C39.05123779 242.91514267 38.06341309 242.92452362 37.0456543 242.93418884 C35.45491089 242.91733788 35.45491089 242.91733788 33.83203125 242.90014648 C32.73737549 242.90160172 31.64271973 242.90305695 30.51489258 242.90455627 C28.20163307 242.90289706 25.88836255 242.89133335 23.57519531 242.87060547 C20.03272652 242.84166055 16.49175482 242.84999499 12.94921875 242.86303711 C10.70181564 242.85679944 8.45441725 242.84840828 6.20703125 242.83764648 C4.61628784 242.84204994 4.61628784 242.84204994 2.9934082 242.84654236 C1.51167114 242.8275161 1.51167114 242.8275161 0 242.80810547 C-0.86729736 242.80270248 -1.73459473 242.7972995 -2.62817383 242.79173279 C-5.74139121 242.27864564 -6.82535371 241.75618129 -8.98046875 239.40405273 C-9.60573717 236.3158411 -9.51929029 233.24528207 -9.48840332 230.10400391 C-9.49776326 228.65775651 -9.49776326 228.65775651 -9.5073123 227.18229198 C-9.52332454 223.93695636 -9.51060568 220.69236328 -9.49804688 217.44702148 C-9.50346432 215.12634847 -9.51058485 212.80567889 -9.51928711 210.48501587 C-9.53756813 204.17105857 -9.53043311 197.85736184 -9.51777077 191.54339981 C-9.50766787 184.94640635 -9.51702889 178.34943571 -9.52331543 171.75244141 C-9.53186755 159.96199596 -9.51860934 148.17166046 -9.49827808 136.38123405 C-9.48040645 125.68598187 -9.48351037 114.99090334 -9.50195312 104.2956543 C-9.52334823 91.88243279 -9.53133314 79.46932206 -9.51950407 67.05608463 C-9.51325685 60.48260896 -9.51246726 53.90925297 -9.52565002 47.33578491 C-9.5371753 41.15681381 -9.52924341 34.97817173 -9.506073 28.7992363 C-9.50076814 26.52679364 -9.50232981 24.25432346 -9.51112366 21.98189163 C-9.52199244 18.88891667 -9.50842025 15.79700788 -9.48840332 12.70410156 C-9.49732621 11.79662265 -9.50624909 10.88914373 -9.51544237 9.95416546 C-9.4390651 3.90457245 -9.4390651 3.90457245 -7.09574127 1.34702969 C-4.5797006 0.22539248 -2.75495207 0.01716247 0 0 Z " fill="#000000" transform="translate(910.98046875,276.595947265625)"/>
<path d="M0 0 C11.99829635 10.71377065 19.32361374 24.97987469 20.37749863 41.08788681 C20.45716551 44.3814554 20.47792791 47.67006377 20.4753418 50.96459961 C20.48205902 52.20809174 20.48877625 53.45158386 20.49569702 54.73275757 C20.51134043 58.11256706 20.51804563 61.49213075 20.51932859 64.87195921 C20.52075709 66.9863625 20.52503941 69.10074051 20.53032303 71.21513748 C20.54876228 78.59843824 20.55699978 85.9816672 20.55541992 93.36499023 C20.55421444 100.23963618 20.57541152 107.11397027 20.60690725 113.98853719 C20.63304357 119.9046909 20.64378861 125.82074237 20.6425091 131.73695338 C20.64199945 135.2649066 20.64768635 138.79258105 20.6688652 142.32047653 C20.69179706 146.24624697 20.68274304 150.17158552 20.6706543 154.09741211 C20.68189331 155.26421509 20.69313232 156.43101807 20.70471191 157.63317871 C20.69632294 158.70123749 20.68793396 159.76929626 20.67929077 160.86972046 C20.68038031 161.79696112 20.68146984 162.72420177 20.68259239 163.67954063 C20.030652 166.90570366 18.71422934 168.10590661 16.18481445 170.14282227 C13.8704834 170.65075684 13.8704834 170.65075684 11.29614258 170.66040039 C10.32833862 170.67300903 9.36053467 170.68561768 8.36340332 170.6986084 C7.32478149 170.69051147 6.28615967 170.68241455 5.21606445 170.67407227 C3.60737488 170.67981262 3.60737488 170.67981262 1.96618652 170.68566895 C-0.299977 170.68838943 -2.56617186 170.68101879 -4.83227539 170.66430664 C-8.30255083 170.6429002 -11.77075582 170.66410501 -15.2409668 170.68969727 C-17.44279429 170.68705402 -19.64462049 170.6819291 -21.84643555 170.67407227 C-22.88505737 170.68216919 -23.9236792 170.69026611 -24.99377441 170.6986084 C-32.16125399 170.60522979 -32.16125399 170.60522979 -35.46264648 168.27075195 C-37.09489611 165.70275778 -37.4058726 163.91976832 -37.56518555 160.89282227 C-37.6219043 160.00079102 -37.67862305 159.10875977 -37.73706055 158.18969727 C-37.7628418 157.51422852 -37.78862305 156.83875977 -37.81518555 156.14282227 C-38.87092773 157.01293945 -38.87092773 157.01293945 -39.94799805 157.90063477 C-53.46027797 168.59050635 -67.36801033 173.54786744 -84.62768555 173.45532227 C-85.69067871 173.45113281 -86.75367188 173.44694336 -87.84887695 173.44262695 C-95.21234615 173.33638503 -101.86041399 172.70510652 -108.81518555 170.14282227 C-109.65436523 169.87598633 -110.49354492 169.60915039 -111.3581543 169.33422852 C-125.14705013 164.52414857 -136.32547156 154.06598105 -142.81518555 141.14282227 C-148.50987742 127.63153104 -150.51260898 111.67259256 -145.78393555 97.48657227 C-139.09016079 81.29195591 -127.24537787 72.50993209 -111.44293213 65.75305176 C-106.30009965 63.65289263 -101.12208098 61.8981942 -95.7956543 60.32641602 C-94.94163025 60.07246063 -94.0876062 59.81850525 -93.20770264 59.55685425 C-82.39316136 56.37993232 -71.47914499 53.57915053 -60.56518555 50.76782227 C-58.44009511 50.21739007 -56.31509461 49.66661049 -54.19018555 49.11547852 C-49.06621045 47.78727292 -43.94116124 46.46328463 -38.81518555 45.14282227 C-39.24677163 43.86602314 -39.69059286 42.59335627 -40.1394043 41.32250977 C-40.3852124 40.61336426 -40.63102051 39.90421875 -40.88427734 39.17358398 C-42.81558125 34.96047465 -46.21175294 32.82248623 -50.43237305 31.03344727 C-54.72419252 29.90349941 -58.70655556 29.75913465 -63.12768555 29.76782227 C-63.97347168 29.76943359 -64.81925781 29.77104492 -65.69067383 29.77270508 C-71.80565121 29.89323217 -76.6669782 30.63323674 -81.81518555 34.14282227 C-82.70206055 34.69969727 -83.58893555 35.25657227 -84.50268555 35.83032227 C-87.35779336 38.68543008 -89.42138607 41.81650402 -91.58081055 45.21704102 C-92.81518555 47.14282227 -92.81518555 47.14282227 -93.81518555 48.14282227 C-102.96216111 48.28258111 -112.05186431 45.68407714 -120.86108398 43.49682617 C-123.33351941 42.88830993 -125.81195698 42.31037236 -128.29174805 41.73266602 C-129.872931 41.34519019 -131.45367838 40.95593161 -133.03393555 40.56469727 C-133.77140015 40.39677673 -134.50886475 40.2288562 -135.26867676 40.05584717 C-138.71907873 39.16641247 -140.54157545 38.48140221 -142.80981445 35.67456055 C-144.52111287 31.36514711 -143.28755539 28.28661088 -141.57299805 24.13500977 C-131.90396104 5.67593912 -116.58314602 -6.57436061 -96.67553711 -12.95166016 C-66.23647253 -22.13468132 -25.37388047 -21.49953049 0 0 Z M-54.25268555 89.83032227 C-55.47407227 90.16999023 -56.69545898 90.5096582 -57.95385742 90.85961914 C-75.22016638 95.20900519 -75.22016638 95.20900519 -88.25268555 106.39282227 C-89.41451199 112.07286265 -88.77997748 116.56407184 -85.75268555 121.51782227 C-80.11163726 126.55875903 -74.2942409 127.79730134 -66.7956543 127.54907227 C-61.01325146 126.76090727 -56.08759663 124.54381596 -50.81518555 122.14282227 C-49.58928711 121.7702832 -48.36338867 121.39774414 -47.1003418 121.01391602 C-42.99996387 119.37999778 -39.89833325 118.10976882 -37.81518555 114.14282227 C-36.16140029 104.95014704 -37.03384155 95.39689414 -37.81518555 86.14282227 C-43.4456726 86.14282227 -48.87001541 88.29202198 -54.25268555 89.83032227 Z " fill="#000000" transform="translate(863.815185546875,348.857177734375)"/>
<path d="M0 0 C2.59070767 1.9963733 5.07317648 4.08526574 7.546875 6.22583008 C8.21976563 6.79817383 8.89265625 7.37051758 9.5859375 7.96020508 C29.04376596 25.9076085 34.94960416 51.93570843 36.546875 77.22583008 C36.67449219 79.12268555 36.67449219 79.12268555 36.8046875 81.05786133 C37.06840827 88.18711269 37.06840827 88.18711269 35.23492432 91.83879089 C30.96839415 95.62755125 26.59374295 94.88298283 21.07714844 94.79345703 C19.90613586 94.79418716 18.73512329 94.7949173 17.52862549 94.79566956 C13.65403084 94.79218327 9.78063492 94.75326946 5.90625 94.71411133 C3.22154408 94.70201115 0.53683948 94.69742316 -2.14788818 94.69267273 C-8.49450322 94.67713629 -14.84068726 94.63611118 -21.18711257 94.58592528 C-28.41312537 94.53002507 -35.63915882 94.50254372 -42.86533403 94.47744811 C-57.72816409 94.42519469 -72.59061609 94.33725682 -87.453125 94.22583008 C-86.85260784 96.29184335 -86.24269248 98.3551262 -85.62890625 100.41723633 C-85.29028564 101.56651611 -84.95166504 102.7157959 -84.6027832 103.89990234 C-81.58114259 112.64142073 -75.83608193 119.55246385 -67.55078125 123.66723633 C-53.80286692 129.63202981 -41.34111109 129.43660154 -27.26953125 124.45239258 C-20.30667498 121.39826246 -14.38387601 115.7046077 -9.53125 109.94458008 C-7.453125 108.22583008 -7.453125 108.22583008 -4.76123047 107.85595703 C-0.56612187 108.32500423 2.16089848 110.08871246 5.5546875 112.42504883 C6.52654495 113.07314262 6.52654495 113.07314262 7.51803589 113.73432922 C8.88218411 114.64832889 10.24183416 115.56907378 11.59716797 116.49609375 C13.66202016 117.90659822 15.74143406 119.29315316 17.82421875 120.67700195 C19.15197041 121.57080614 20.47882447 122.46594545 21.8046875 123.36254883 C22.72980637 123.98005257 22.72980637 123.98005257 23.6736145 124.61003113 C27.28542351 127.09707472 30.10227754 129.56954609 32.546875 133.22583008 C32.34603627 141.41000837 23.48266279 148.75652606 17.984375 154.09692383 C-2.71820842 172.1785071 -31.81056058 176.84946182 -58.453125 175.22583008 C-83.88638379 173.04096646 -108.05611836 163.63932655 -125.20703125 144.19458008 C-140.56197697 125.76576437 -146.8777228 103.12282764 -146.765625 79.41333008 C-146.76071045 78.1808252 -146.7557959 76.94832031 -146.75073242 75.6784668 C-146.63686661 66.83196945 -146.01371474 58.74056224 -143.453125 50.22583008 C-143.10121094 49.05536133 -142.74929688 47.88489258 -142.38671875 46.67895508 C-138.23730806 34.13486202 -132.24756079 23.09679756 -123.453125 13.22583008 C-122.79957031 12.47817383 -122.14601563 11.73051758 -121.47265625 10.96020508 C-91.40861944 -21.3036393 -35.36664562 -25.94512189 0 0 Z M-79.453125 39.22583008 C-83.49478577 45.57070802 -85.38023792 50.71562051 -86.453125 58.22583008 C-65.993125 58.22583008 -45.533125 58.22583008 -24.453125 58.22583008 C-25.41929835 48.56409657 -26.33498426 42.86536605 -33.5 36.37036133 C-47.336425 26.43463061 -67.36620174 25.95132702 -79.453125 39.22583008 Z " fill="#000000" transform="translate(1218.453125,347.774169921875)"/>
<path d="M0 0 C2.17973978 1.02247116 4.33287525 2.08704996 6.48272705 3.17089844 C7.26193512 3.55906738 8.04114319 3.94723633 8.84396362 4.34716797 C10.47388643 5.16111685 12.10232438 5.97804554 13.72930908 6.79785156 C16.2195201 8.05104695 18.7159393 9.29118791 21.2131958 10.53027344 C22.80342524 11.32637849 24.39328265 12.12322719 25.98272705 12.92089844 C26.72646576 13.28973145 27.47020447 13.65856445 28.23648071 14.03857422 C29.27368759 14.56427002 29.27368759 14.56427002 30.33184814 15.10058594 C30.9375766 15.40464355 31.54330505 15.70870117 32.16738892 16.02197266 C35.47606303 18.05438938 35.47606303 18.05438938 36.83428955 20.04589844 C37.8707283 27.34194974 35.27973653 31.93388991 31.75787354 38.19165039 C30.6425395 40.24980759 29.5302022 42.30959081 28.42044067 44.37075806 C27.83174572 45.45752964 27.24305077 46.54430122 26.63651657 47.66400528 C23.56062689 53.43593643 20.66726362 59.29783208 17.76812744 65.15991211 C17.14735451 66.41147611 16.52640317 67.66295164 15.90528011 68.91434193 C14.61945629 71.50573854 13.33483149 74.09772482 12.05101204 76.69011497 C10.00720973 80.81596939 7.95763516 84.93894053 5.90690613 89.06135559 C5.38220571 90.1162125 5.38220571 90.1162125 4.84690529 91.19237965 C4.13359968 92.62639079 3.42028311 94.06039647 2.70695579 95.49439681 C-2.04644931 105.05081326 -6.79586627 114.60916934 -11.53118896 124.17456055 C-14.75658776 130.68978158 -17.99047782 137.20070886 -21.23423582 143.70680982 C-22.94142458 147.13183055 -24.6442124 150.55888195 -26.33650017 153.99129295 C-27.91950925 157.2019376 -29.51361795 160.40681708 -31.11640167 163.60763359 C-31.97865941 165.33693174 -32.8289522 167.07217975 -33.67884827 168.80758667 C-34.19847137 169.84003006 -34.71809448 170.87247345 -35.25346375 171.936203 C-35.92004706 173.279614 -35.92004706 173.279614 -36.6000967 174.6501646 C-38.44640166 177.4754178 -40.37678132 179.1610957 -43.16571045 181.04589844 C-48.71280805 181.09243366 -53.55336837 178.13271031 -58.3961792 175.67871094 C-59.26841629 175.24332001 -60.14065338 174.80792908 -61.0393219 174.35934448 C-62.87595108 173.44020231 -64.71061001 172.51711387 -66.543396 171.59033203 C-69.34914787 170.17295073 -72.16208586 168.77069375 -74.97625732 167.37011719 C-76.76251159 166.47387205 -78.54833413 165.57676585 -80.3336792 164.67871094 C-81.17432419 164.25985626 -82.01496918 163.84100159 -82.88108826 163.40945435 C-83.66232559 163.01249359 -84.44356293 162.61553284 -85.24847412 162.20654297 C-85.93431076 161.86092316 -86.6201474 161.51530334 -87.32676697 161.15921021 C-89.42499105 159.88892779 -90.75295373 159.07465273 -92.16571045 157.04589844 C-93.31866325 150.1853586 -90.1579889 145.08005197 -87.09197998 139.08789062 C-86.55208939 138.00548096 -86.01219879 136.92307129 -85.45594788 135.80786133 C-83.97573117 132.84724454 -82.48334637 129.89339957 -80.98506784 126.9419241 C-79.40901617 123.83010638 -77.84869685 120.71041768 -76.28652954 117.59161377 C-73.65416309 112.34159213 -71.01172253 107.09675045 -68.36199951 101.85546875 C-64.65916332 94.53105408 -60.97404742 87.19783908 -57.29278779 79.8625617 C-36.27194006 37.98716414 -36.27194006 37.98716414 -27.17578125 20.84907532 C-25.46196973 17.61872381 -23.7903191 14.3689942 -22.14227295 11.10449219 C-21.74137451 10.31751953 -21.34047607 9.53054688 -20.9274292 8.71972656 C-20.13796979 7.16658048 -19.35733348 5.60893066 -18.5836792 4.04785156 C-18.19051514 3.28279297 -17.79735107 2.51773437 -17.39227295 1.72949219 C-17.05792236 1.0648999 -16.72357178 0.40030762 -16.37908936 -0.28442383 C-11.87455567 -6.48291595 -5.6424525 -2.48577678 0 0 Z " fill="#FC00FD" transform="translate(160.16571044921875,338.9541015625)"/>
<path d="M0 0 C1.05119019 -0.00938095 2.10238037 -0.0187619 3.1854248 -0.02842712 C4.31984009 -0.01719315 5.45425537 -0.00595917 6.62304688 0.00561523 C8.37059265 0.00343239 8.37059265 0.00343239 10.15344238 0.00120544 C12.6181081 0.00286641 15.08278398 0.01444955 17.54736328 0.03515625 C21.32694408 0.06409526 25.1051219 0.05577145 28.88476562 0.04272461 C31.27669955 0.04896216 33.66862903 0.05735322 36.06054688 0.06811523 C37.7621698 0.06371178 37.7621698 0.06371178 39.49816895 0.05921936 C40.54935913 0.07190353 41.60054932 0.08458771 42.68359375 0.09765625 C44.07233704 0.10576073 44.07233704 0.10576073 45.48913574 0.11402893 C48.4263401 0.59803214 49.10782568 1.0932798 50.84179688 3.50170898 C51.2193203 6.59551239 51.2193203 6.59551239 51.2227478 10.48596191 C51.22976776 11.55856427 51.22976776 11.55856427 51.23692954 12.65283537 C51.24892039 15.05512109 51.23940669 17.45684064 51.22998047 19.85913086 C51.23404437 21.57882521 51.23938522 23.29851696 51.24591064 25.01820374 C51.25961173 29.6937631 51.25427411 34.36912435 51.24477339 39.04468727 C51.23719123 43.93201873 51.24421837 48.81933294 51.24893188 53.70666504 C51.25439365 61.91490736 51.24718678 70.12306878 51.23291016 78.33129883 C51.21658284 87.82838217 51.22187105 97.32527232 51.23838937 106.82235098 C51.25199224 114.96847996 51.25392978 123.11455069 51.24607337 131.26068735 C51.24139024 136.12946649 51.24078951 140.99815476 51.25068283 145.8669281 C51.2593328 150.44371547 51.25336677 155.02025315 51.23600006 159.59701347 C51.23202465 161.2792615 51.23318721 162.96153045 51.23978806 164.64377022 C51.24795232 166.93528496 51.23774495 169.2259931 51.2227478 171.51745605 C51.22161673 172.8013044 51.22048565 174.08515274 51.2193203 175.40790558 C50.84179688 178.50170898 50.84179688 178.50170898 49.46502876 180.41399479 C47.16153895 181.95754416 45.443567 181.88965497 42.68359375 181.90576172 C41.10680847 181.92478798 41.10680847 181.92478798 39.49816895 181.94419861 C38.36375366 181.94126297 37.22933838 181.93832733 36.06054688 181.93530273 C34.89551636 181.94054459 33.73048584 181.94578644 32.53015137 181.95118713 C30.06551918 181.95761426 27.60085635 181.95626147 25.13623047 181.94775391 C21.35654341 181.93924219 17.57836584 181.96800124 13.79882812 181.99975586 C11.4069015 182.0013678 9.01497218 182.00079047 6.62304688 181.99780273 C5.48863159 182.00903671 4.35421631 182.02027069 3.1854248 182.03184509 C2.13423462 182.02246414 1.08304443 182.01308319 0 182.00341797 C-0.92582886 182.0032518 -1.85165771 182.00308563 -2.80554199 182.00291443 C-5.15820312 181.50170898 -5.15820312 181.50170898 -6.78143501 179.90924931 C-8.64906665 176.64334096 -8.53580055 174.23600102 -8.53915405 170.4798584 C-8.54383402 169.7728084 -8.548514 169.06575841 -8.55333579 168.33728266 C-8.56530188 165.9680725 -8.55582258 163.59943906 -8.54638672 161.23022461 C-8.55045171 159.53170941 -8.55579319 157.83319686 -8.56231689 156.13468933 C-8.5760049 151.52110257 -8.57068573 146.90771684 -8.56117964 142.29412651 C-8.55359073 137.46866179 -8.56062651 132.64321441 -8.56533813 127.81774902 C-8.57079793 119.71383571 -8.5635982 111.61000438 -8.54931641 103.50610352 C-8.53298947 94.13341848 -8.53827782 84.76092921 -8.55479562 75.38824892 C-8.56840411 67.34484317 -8.57033327 59.3014964 -8.56247962 51.25808287 C-8.55779959 46.45244353 -8.55718729 41.64689626 -8.56708908 36.84126282 C-8.57574719 32.32355384 -8.56975803 27.80609756 -8.55240631 23.28841591 C-8.54843528 21.62916293 -8.54958604 19.96988872 -8.55619431 18.31064415 C-8.56437577 16.0479943 -8.55413021 13.78615743 -8.53915405 11.52355957 C-8.53802298 10.25668053 -8.5368919 8.98980148 -8.53572655 7.68453217 C-7.84859882 1.89149806 -5.70510793 0.00102396 0 0 Z " fill="#7303CE" transform="translate(279.158203125,336.498291015625)"/>
<path d="M0 0 C1.62820679 0.31457153 1.62820679 0.31457153 3.28930664 0.63549805 C4.44422607 0.87953369 5.59914551 1.12356934 6.7890625 1.375 C7.97685303 1.6119458 9.16464355 1.8488916 10.38842773 2.09301758 C14.06799625 2.83392451 17.74090214 3.60302208 21.4140625 4.375 C23.68868115 4.83783434 25.96341583 5.30009887 28.23828125 5.76171875 C30.31815665 6.19315688 32.39760733 6.62664917 34.4765625 7.0625 C35.45093262 7.26423828 36.42530273 7.46597656 37.42919922 7.67382812 C38.32268066 7.86783203 39.21616211 8.06183594 40.13671875 8.26171875 C40.91797119 8.42889404 41.69922363 8.59606934 42.50415039 8.76831055 C44.4140625 9.375 44.4140625 9.375 46.4140625 11.375 C47.39932191 18.62655494 45.7897095 25.90612132 44.33789062 32.98291016 C44.11665527 34.10030075 43.89541992 35.21769135 43.66748047 36.36894226 C42.93581207 40.05252017 42.19063142 43.73322448 41.4453125 47.4140625 C40.92555804 50.01663275 40.40656245 52.61934318 39.8885498 55.22225952 C38.65911537 61.39133115 37.41995055 67.55840566 36.1772151 73.72481 C34.65910038 81.26015087 33.15376737 88.79803427 31.6484375 96.3359375 C30.05777609 104.29972406 28.46447599 112.2629492 26.85986328 120.22393799 C24.51926261 131.83846442 22.19335397 143.45451965 19.953125 155.08886719 C19.41006526 157.88746119 18.86622611 160.68590254 18.3221283 163.48429489 C17.83504441 166.00956053 17.36025032 168.53692969 16.88586426 171.06460571 C16.59708049 172.55149666 16.3076946 174.03827085 16.01757812 175.52490234 C15.77769165 176.78797211 15.53780518 178.05104187 15.29064941 179.35238647 C14.41045465 182.38744046 14.01920612 183.64911789 11.4140625 185.375 C7.96461731 186.42195866 5.30722137 186.40736165 1.79492188 185.72583008 C0.91050415 185.55847855 0.02608643 185.39112701 -0.88513184 185.21870422 C-2.29937439 184.9344886 -2.29937439 184.9344886 -3.7421875 184.64453125 C-4.72207642 184.45283859 -5.70196533 184.26114594 -6.71154785 184.06364441 C-8.78018881 183.655651 -10.84784463 183.2426349 -12.91455078 182.82495117 C-16.07133492 182.19043513 -19.23237233 181.58169467 -22.39453125 180.97460938 C-24.40656086 180.57447665 -26.41829088 180.17283384 -28.4296875 179.76953125 C-29.37251587 179.59017532 -30.31534424 179.4108194 -31.28674316 179.22602844 C-40.34466403 177.35065101 -40.34466403 177.35065101 -43.5859375 173.375 C-43.86575222 168.61392906 -43.34537146 164.28405915 -42.42251587 159.61999512 C-42.23474738 158.65675552 -42.23474738 158.65675552 -42.04318559 157.67405653 C-41.62574147 155.54117794 -41.19888451 153.41029891 -40.77197266 151.27929688 C-40.46924052 149.74295433 -40.16708584 148.2064979 -39.86546326 146.66993713 C-39.04704525 142.50970594 -38.22035934 138.35115722 -37.39199877 134.19289589 C-36.52500293 129.83418402 -35.66510659 125.4740715 -34.80429077 121.11413574 C-33.35776 113.79312789 -31.90613656 106.47314472 -30.45117188 99.15380859 C-28.77089333 90.70083391 -27.0972876 82.24656059 -25.42756999 73.79149389 C-23.64742847 64.77750023 -21.86275066 55.76440928 -20.07656431 46.75161171 C-19.56327491 44.16016232 -19.05079082 41.56855473 -18.53847122 38.97691345 C-17.73200863 34.89861937 -16.92247462 30.82094629 -16.11059761 26.74372673 C-15.81370718 25.25041032 -15.51780603 23.75689683 -15.22298622 22.26317024 C-14.819182 20.21822395 -14.41171033 18.17404079 -14.00332642 16.13000488 C-13.77656534 14.98777718 -13.54980427 13.84554947 -13.31617165 12.6687088 C-11.14084312 2.85692619 -11.14084312 2.85692619 -8.31005859 0.3984375 C-5.06314273 -0.82141115 -3.3835714 -0.68251566 0 0 Z " fill="#8D27D8" transform="translate(218.5859375,334.625)"/>
<path d="M0 0 C3 1 3 1 3.92298889 2.65075684 C4.18180344 3.37122192 4.44061798 4.09168701 4.70727539 4.83398438 C5.16130737 6.07077438 5.16130737 6.07077438 5.62451172 7.33255005 C5.94564941 8.24374603 6.26678711 9.15494202 6.59765625 10.09375 C6.94449463 11.04804901 7.29133301 12.00234802 7.64868164 12.98556519 C8.79733318 16.15328311 9.92976967 19.3265578 11.0625 22.5 C11.85548417 24.69525997 12.64968921 26.89007929 13.44506836 29.08447266 C15.11258515 33.68778133 16.7746835 38.29299732 18.43359375 42.89941406 C22.19413645 53.32451397 26.03159954 63.72133081 29.86349487 74.12036133 C31.77763872 79.31620781 33.68820671 84.51336436 35.59765625 89.7109375 C35.92910645 90.61182098 36.26055664 91.51270447 36.60205078 92.44088745 C37.05632446 93.67743576 37.05632446 93.67743576 37.51977539 94.93896484 C37.78303116 95.65498871 38.04628693 96.37101257 38.31752014 97.10873413 C41.33684147 105.47577866 39.47124105 112.74528621 37.6875 121.25 C37.47416016 122.33796875 37.26082031 123.4259375 37.04101562 124.546875 C36.82509766 125.5884375 36.60917969 126.63 36.38671875 127.703125 C36.19295654 128.64833008 35.99919434 129.59353516 35.79956055 130.56738281 C34.91714183 133.25209125 34.29105695 134.36524384 32 136 C28.52435589 136.92548009 25.89853869 137.03340556 22.38085938 136.35083008 C21.49644165 136.18347855 20.61202393 136.01612701 19.70080566 135.84370422 C18.28656311 135.5594886 18.28656311 135.5594886 16.84375 135.26953125 C15.86386108 135.07783859 14.88397217 134.88614594 13.87438965 134.68864441 C11.80574869 134.280651 9.73809287 133.8676349 7.67138672 133.44995117 C4.51460258 132.81543513 1.35356517 132.20669467 -1.80859375 131.59960938 C-3.82062336 131.19947665 -5.83235338 130.79783384 -7.84375 130.39453125 C-8.78657837 130.21517532 -9.72940674 130.0358194 -10.70080566 129.85102844 C-19.75872653 127.97565101 -19.75872653 127.97565101 -23 124 C-23.53915254 117.66111792 -22.13508971 111.65970661 -20.88867188 105.46508789 C-20.66433975 104.32289795 -20.44000763 103.18070801 -20.20887756 102.00390625 C-19.46844485 98.24222009 -18.71865336 94.48246482 -17.96875 90.72265625 C-17.45250569 88.10960418 -16.9367835 85.49645446 -16.42175293 82.88316345 C-15.20521849 76.71641595 -13.98193883 70.55102696 -12.75620031 64.38610309 C-11.36040463 57.36413715 -9.97218046 50.34068118 -8.5845747 43.31709301 C-5.73144233 28.8763956 -2.86885673 14.43758198 0 0 Z " fill="#A129E1" transform="translate(198,384)"/>
<path d="M0 0 C2.17973978 1.02247116 4.33287525 2.08704996 6.48272705 3.17089844 C7.26193512 3.55906738 8.04114319 3.94723633 8.84396362 4.34716797 C10.47388643 5.16111685 12.10232438 5.97804554 13.72930908 6.79785156 C16.2195201 8.05104695 18.7159393 9.29118791 21.2131958 10.53027344 C22.80342524 11.32637849 24.39328265 12.12322719 25.98272705 12.92089844 C26.72646576 13.28973145 27.47020447 13.65856445 28.23648071 14.03857422 C29.27368759 14.56427002 29.27368759 14.56427002 30.33184814 15.10058594 C30.9375766 15.40464355 31.54330505 15.70870117 32.16738892 16.02197266 C34.0680901 17.18951492 35.41809474 18.31835811 36.83428955 20.04589844 C37.85597089 27.3067069 35.32504852 31.85232614 31.81866455 38.08105469 C30.70837867 40.12914661 29.60111904 42.17888108 28.49639893 44.22998047 C27.90206055 45.32691223 27.30772217 46.42384399 26.69537354 47.55401611 C23.37657279 53.78095792 20.24497364 60.10103944 17.09991455 66.41699219 C16.43810001 67.7424874 15.77611232 69.06789617 15.11395264 70.39321899 C13.44198202 73.74088258 11.77242656 77.08974447 10.10345459 80.43890381 C8.37464634 83.90697723 6.64340957 87.373838 4.91241455 90.84082031 C1.55074486 97.57470319 -1.80836538 104.30985817 -5.16571045 111.04589844 C-7.87455268 107.57713015 -9.62690051 104.02473099 -11.3180542 99.98339844 C-11.61461914 99.28725937 -11.91118408 98.5911203 -12.21673584 97.87388611 C-13.18407532 95.6000504 -14.14373569 93.32306257 -15.10321045 91.04589844 C-15.76944484 89.47479836 -16.43619751 87.90391796 -17.10345459 86.33325195 C-18.12221779 83.93459422 -19.1404264 81.53571275 -20.15641785 79.13587952 C-22.35699442 73.93900354 -24.57981596 68.75230978 -26.82196045 63.57324219 C-27.38327073 62.27442745 -27.94455089 60.9755997 -28.50579834 59.67675781 C-29.55419467 57.25100518 -30.60601445 54.82683092 -31.65960693 52.40332031 C-32.12439453 51.32501953 -32.58918213 50.24671875 -33.0680542 49.13574219 C-33.47531738 48.19593506 -33.88258057 47.25612793 -34.30218506 46.2878418 C-35.16571045 44.04589844 -35.16571045 44.04589844 -35.16571045 42.04589844 C-35.82571045 42.04589844 -36.48571045 42.04589844 -37.16571045 42.04589844 C-35.62048673 36.76358473 -33.26286614 32.17650492 -30.66571045 27.35839844 C-29.76670759 25.67901346 -28.86828802 23.99931613 -27.97039795 22.31933594 C-27.50859131 21.45663086 -27.04678467 20.59392578 -26.57098389 19.70507812 C-25.15905123 17.03329729 -23.78628496 14.34461447 -22.42352295 11.64746094 C-21.98201904 10.78209717 -21.54051514 9.9167334 -21.08563232 9.02514648 C-20.23691203 7.35922888 -19.39673362 5.68892562 -18.56610107 4.01391602 C-18.17873779 3.26005615 -17.79137451 2.50619629 -17.39227295 1.72949219 C-17.05792236 1.0648999 -16.72357178 0.40030762 -16.37908936 -0.28442383 C-11.87455567 -6.48291595 -5.6424525 -2.48577678 0 0 Z " fill="#C91CEF" transform="translate(160.16571044921875,338.9541015625)"/>
<path d="M0 0 C0.66 0 1.32 0 2 0 C2.3380088 0.91792831 2.3380088 0.91792831 2.68284607 1.85440063 C12.30870132 27.99461145 21.93468654 54.13479167 31.58547974 80.26580811 C32.31754374 82.24818496 33.04937728 84.23064694 33.78097534 86.2131958 C34.79471819 88.96008748 35.80933675 91.70665403 36.82421875 94.453125 C37.11911194 95.2526358 37.41400513 96.05214661 37.71783447 96.87588501 C37.99101501 97.61454803 38.26419556 98.35321106 38.5456543 99.11425781 C38.79640717 99.79282837 39.04716003 100.47139893 39.30551147 101.17053223 C39.90230956 102.74265737 40.54598698 104.2968442 41.19848633 105.84667969 C42 108 42 108 42 111 C36.50078594 111.09881786 31.00208765 111.17144379 25.50219727 111.21972656 C23.63101196 111.23985207 21.75988961 111.26715549 19.88891602 111.30175781 C17.20052568 111.35023581 14.51296612 111.37295872 11.82421875 111.390625 C10.56782845 111.42159271 10.56782845 111.42159271 9.28605652 111.45318604 C6.9206543 111.45410156 6.9206543 111.45410156 3 111 C0.28780725 108.25325923 -0.37416792 106.26369036 -0.36076355 102.45684814 C-0.36488754 101.551035 -0.36901154 100.64522186 -0.3732605 99.71195984 C-0.36247467 98.72581192 -0.35168884 97.739664 -0.34057617 96.72363281 C-0.34101425 95.67941666 -0.34145233 94.6352005 -0.34190369 93.55934143 C-0.3398133 90.10707924 -0.31646983 86.65530238 -0.29296875 83.203125 C-0.2873737 80.80987819 -0.28310317 78.41662794 -0.28010559 76.02337646 C-0.26864972 69.7235567 -0.23917587 63.42394434 -0.20599365 57.12420654 C-0.17530894 50.69611415 -0.16160366 44.26798826 -0.14648438 37.83984375 C-0.11430712 25.226474 -0.06367802 12.61324803 0 0 Z " fill="#8A13D8" transform="translate(271,407)"/>
<path d="M0 0 C5.74992155 1.0717997 11.49719712 2.15652709 17.24243164 3.25317383 C19.19618902 3.62423063 21.150616 3.99177994 23.10571289 4.35571289 C25.91997813 4.88021236 28.73157383 5.41738478 31.54296875 5.95703125 C32.41398727 6.11653763 33.2850058 6.27604401 34.18241882 6.44038391 C43.35018803 8.22750841 43.35018803 8.22750841 46 11 C47.84905933 19.43575964 44.63570733 29.18734953 42.9375 37.5078125 C42.62278292 39.08519157 42.30891347 40.66273998 41.99584961 42.240448 C41.17570064 46.36187172 40.34417109 50.48091634 39.51013184 54.59954834 C38.65863209 58.81497131 37.81807924 63.03257497 36.9765625 67.25 C35.32832626 75.50215516 33.66804308 83.75182577 32 92 C31.67 92 31.34 92 31 92 C30.89613983 91.39568146 30.79227966 90.79136292 30.68527222 90.16873169 C29.5142936 83.81141127 27.74656761 77.92276516 25.5078125 71.8671875 C25.16534988 70.92362396 24.82288727 69.98006042 24.470047 69.00790405 C23.3619966 65.9610112 22.24363459 62.91802095 21.125 59.875 C20.35827478 57.77200325 19.59208386 55.66881164 18.82641602 53.56542969 C15.33465256 43.99171649 11.80354779 34.43330532 8.20703125 24.8984375 C7.92325623 24.14565521 7.6394812 23.39287292 7.34710693 22.61727905 C6.04218447 19.16037162 4.72993341 15.70652984 3.40478516 12.25732422 C2.72295166 10.46705811 2.72295166 10.46705811 2.02734375 8.640625 C1.63281006 7.61485352 1.23827637 6.58908203 0.83178711 5.53222656 C0 3 0 3 0 0 Z " fill="#7C24D0" transform="translate(219,335)"/>
<path d="M0 0 C0.99 0 1.98 0 3 0 C7.84718189 10.99164358 12.68166399 21.9887257 17.49412537 32.99562073 C19.59647991 37.80236544 21.70800719 42.60470448 23.83766174 47.39941406 C25.1326688 50.32365232 26.40883179 53.25608858 27.6875 56.1875 C28.15003174 57.21665527 28.61256348 58.24581055 29.08911133 59.30615234 C29.49669678 60.25055176 29.90428223 61.19495117 30.32421875 62.16796875 C30.67572998 62.96485107 31.02724121 63.7617334 31.3894043 64.58276367 C32.72347477 69.86410384 30.65990498 74.17113341 28.27734375 78.8359375 C27.73916016 79.89941406 27.20097656 80.96289062 26.64648438 82.05859375 C26.08251953 83.15300781 25.51855469 84.24742187 24.9375 85.375 C24.36966797 86.49261719 23.80183594 87.61023438 23.21679688 88.76171875 C21.81836696 91.51157253 20.41259331 94.25740261 19 97 C17.26647049 94.39970574 16.0435231 92.04511104 14.77734375 89.20703125 C14.3289917 88.2030127 13.88063965 87.19899414 13.41870117 86.16455078 C10.93707016 80.54846478 8.46381926 74.92898295 6.0065918 69.30218506 C4.92567239 66.83000467 3.84079685 64.35957963 2.75585938 61.88916016 C0.77573656 57.37494899 -1.18780679 52.85378883 -3.14181519 48.32821655 C-3.92125394 46.52842235 -4.70520301 44.73057463 -5.49368286 42.9347229 C-6.60883078 40.39148204 -7.70670477 37.84142549 -8.80078125 35.2890625 C-9.13974426 34.52551956 -9.47870728 33.76197662 -9.82794189 32.97529602 C-11.53410155 28.94175101 -12.59040955 26.29564723 -11 22 C-10.22174425 20.20752529 -9.38221088 18.44089726 -8.49609375 16.69921875 C-8.00302734 15.72275391 -7.50996094 14.74628906 -7.00195312 13.74023438 C-6.48568359 12.73283203 -5.96941406 11.72542969 -5.4375 10.6875 C-4.91736328 9.66076172 -4.39722656 8.63402344 -3.86132812 7.57617188 C-2.57959638 5.0479854 -1.29233939 2.522776 0 0 Z " fill="#E70BF8" transform="translate(122,381)"/>
<path d="M0 0 C5.29135189 1.5503324 9.91743313 3.90550012 14.75 6.5 C15.51699219 6.90347656 16.28398437 7.30695313 17.07421875 7.72265625 C22.73948543 10.73948543 22.73948543 10.73948543 25 13 C25.78772299 19.90772465 23.91300137 24.08618081 20.5 30 C20.07074219 30.77472656 19.64148438 31.54945313 19.19921875 32.34765625 C18.1478147 34.24018355 17.07596638 36.12132855 16 38 C15.67 38 15.34 38 15 38 C14.63261719 36.8140625 14.26523438 35.628125 13.88671875 34.40625 C11.61848878 27.60022663 8.67739233 21.06988479 5.8125 14.5 C4.97528281 12.57413605 4.13915766 10.64781529 3.30509949 8.72058105 C2.55710291 6.99302468 1.80562056 5.26697881 1.05395508 3.54101562 C0 1 0 1 0 0 Z " fill="#B12AE8" transform="translate(172,346)"/>
</svg>
