<svg width="62" height="62" viewBox="0 0 62 62" fill="none" xmlns="http://www.w3.org/2000/svg">
<path d="M14.1011 21.932C16.7999 21.9546 18.7555 22.7327 19.968 24.265C21.1805 25.7973 21.5805 27.8901 21.1688 30.5436C21.0089 31.7561 20.6542 32.9452 20.1052 34.1118C19.5789 35.2783 18.8474 36.3302 17.9094 37.2682C16.7656 38.4574 15.5421 39.2122 14.2383 39.5326C12.9346 39.8531 11.5849 40.013 10.1898 40.013H6.07274L4.76899 46.5317H0L4.90622 21.932H14.1011ZM54.7757 21.932C57.4745 21.9546 59.4301 22.7327 60.6426 24.265C61.8551 25.7973 62.2551 27.8901 61.8434 30.5436C61.6835 31.7561 61.3288 32.9452 60.7798 34.1118C60.2535 35.2783 59.522 36.3302 58.584 37.2682C57.4402 38.4574 56.2167 39.2122 54.9129 39.5326C53.6092 39.8531 52.2595 40.013 50.8644 40.013H46.7473L45.4436 46.5317H40.6746L45.5808 21.932H54.7757ZM31.336 15.3789L29.9979 21.932H34.2523C36.5853 21.9779 38.3234 22.4583 39.4673 23.373C40.6338 24.2877 40.9769 26.0264 40.4966 28.588L38.1979 40.013H33.3946L35.5904 29.1026C35.8189 27.9588 35.7502 27.147 35.3845 26.6667C35.0187 26.1863 34.2296 25.9462 33.0172 25.9462L29.2088 25.9118L26.3955 40.013H21.6608L26.6013 15.3789H31.336ZM10.3957 25.8432C10.1212 25.8659 9.85841 25.8775 9.60659 25.8775L8.91347 25.8775L6.86185 36.136C6.99909 36.1587 7.13632 36.1703 7.27356 36.1703H7.75389C9.94968 36.193 11.7797 35.9761 13.2434 35.5184C14.707 35.0381 15.691 33.3686 16.194 30.5093C16.6057 28.1076 16.194 26.7236 14.9588 26.3579C13.7464 25.9921 12.2257 25.8206 10.3957 25.8432ZM51.0703 25.8432C50.7958 25.8659 50.533 25.8775 50.2812 25.8775L49.588 25.8775L47.5364 36.136C47.6737 36.1587 47.8109 36.1703 47.9482 36.1703H48.4285C50.6243 36.193 52.4543 35.9761 53.918 35.5184C55.3816 35.0381 56.3656 33.3686 56.8686 30.5093C57.2803 28.1076 56.8686 26.7236 55.6334 26.3579C54.421 25.9921 52.9003 25.8206 51.0703 25.8432Z" fill="#212529"/>
</svg>
