<svg width="55" height="55" viewBox="0 0 55 55" fill="none" xmlns="http://www.w3.org/2000/svg">
<mask id="mask0_658_3068" style="mask-type:alpha" maskUnits="userSpaceOnUse" x="0" y="0" width="55" height="55">
<rect width="55" height="55" fill="#D9D9D9"/>
</mask>
<g mask="url(#mask0_658_3068)">
</g>
<path d="M13.4446 7.81494H41.5929C44.6893 7.81494 47.2226 10.3483 47.2226 13.4446V41.5929C47.2226 44.6893 44.6893 47.2226 41.5929 47.2226H13.4446C10.3483 47.2226 7.81494 44.6893 7.81494 41.5929V13.4446C7.81494 10.3483 10.3483 7.81494 13.4446 7.81494Z" fill="#212529"/>
<path d="M43.704 27.5187C43.704 25.2669 41.0299 23.4372 37.0891 22.1706C38.0743 18.0891 37.6521 14.852 35.8225 13.8668C35.2595 13.5853 34.8373 13.4446 34.2743 13.4446C32.4447 13.4446 30.1928 14.7113 27.9409 16.9631C25.5483 14.7113 23.2964 13.4446 21.4668 13.4446C20.9038 13.4446 20.3409 13.5853 19.9186 13.8668C18.089 14.852 17.6668 18.0891 18.652 22.1706C14.7112 23.4372 12.0371 25.2669 12.0371 27.5187C12.0371 29.7706 14.7112 31.6003 18.652 32.8669C17.6668 36.9484 17.9483 40.1855 19.9186 41.3114C20.3409 41.5929 20.9038 41.7337 21.4668 41.7337C23.2964 41.7337 25.5483 40.467 27.8002 38.2151C30.052 40.467 32.4447 41.7337 34.1336 41.7337C34.6965 41.7337 35.2595 41.5929 35.6817 41.3114C37.5114 40.1855 37.9336 36.9484 36.9484 32.8669C41.0299 31.6003 43.704 29.6299 43.704 27.5187ZM34.2743 14.9927C34.5558 14.9927 34.8373 14.9927 34.978 15.1335C35.8225 15.6964 36.2447 17.5261 35.9632 19.9187C35.8225 20.4817 35.8225 21.1854 35.6817 21.7483C34.415 21.4669 33.0076 21.1854 31.6002 21.0446C30.7558 19.9187 29.9113 18.7928 29.0669 17.9483C31.0372 15.9779 33.0076 14.9927 34.2743 14.9927ZM32.1632 30.0521C31.7409 30.8965 31.178 31.6003 30.7558 32.4447C29.7706 32.4447 28.9261 32.5854 27.9409 32.5854C26.9557 32.5854 25.9705 32.5854 25.1261 32.4447C24.5631 31.741 24.1409 30.8965 23.7187 30.0521C23.2964 29.2076 22.8742 28.3632 22.452 27.5187C22.8742 26.6743 23.2964 25.8298 23.7187 24.9854C24.1409 24.1409 24.7039 23.2965 25.2668 22.5928C26.1113 22.5928 27.0965 22.452 28.0817 22.452C29.0669 22.452 29.9113 22.452 30.8965 22.5928C31.4595 23.2965 31.8817 24.1409 32.4447 24.9854C32.8669 25.8298 33.2891 26.6743 33.7113 27.5187C33.1484 28.3632 32.5854 29.2076 32.1632 30.0521ZM34.2743 29.3484C34.5558 30.1928 34.8373 30.8965 35.1187 31.741C34.2743 31.8817 33.4298 32.0225 32.5854 32.1632C32.8669 31.741 33.1484 31.3188 33.4298 30.7558C33.7113 30.3336 33.9928 29.7706 34.2743 29.3484ZM27.8002 35.9632C27.2372 35.4003 26.6742 34.6966 26.1113 33.9929C26.6742 33.9929 27.2372 33.9929 27.8002 33.9929C28.3631 33.9929 28.9261 33.9929 29.4891 33.9929C28.9261 34.6966 28.3631 35.4003 27.8002 35.9632ZM23.015 32.1632C22.1705 32.0225 21.3261 31.8817 20.4816 31.741C20.7631 30.8965 21.0446 30.1928 21.3261 29.3484C21.6075 29.7706 21.889 30.3336 22.1705 30.7558C22.452 31.3188 22.7335 31.741 23.015 32.1632ZM21.4668 25.6891C21.1853 24.8447 20.9038 24.0002 20.6224 23.2965C21.4668 23.1558 22.3113 23.015 23.1557 22.8743C22.8742 23.2965 22.5927 23.8595 22.3113 24.2817C21.889 24.7039 21.6075 25.2669 21.4668 25.6891ZM27.8002 19.0742C28.3631 19.6372 28.9261 20.3409 29.4891 21.0446C28.9261 21.0446 28.3631 21.0446 27.8002 21.0446C27.2372 21.0446 26.6742 21.0446 26.1113 21.0446C26.6742 20.3409 27.2372 19.6372 27.8002 19.0742ZM33.4298 24.2817C33.1484 23.7187 32.8669 23.2965 32.5854 22.8743C33.4298 23.015 34.2743 23.1558 35.1187 23.2965C34.8373 24.1409 34.5558 24.9854 34.2743 25.6891C33.9928 25.2669 33.7113 24.7039 33.4298 24.2817ZM19.7779 19.9187C19.4964 17.5261 19.7779 15.6964 20.7631 15.1335C20.9038 14.9927 21.1853 14.9927 21.4668 14.9927C22.7335 14.9927 24.7039 15.9779 26.815 18.0891C25.9705 19.0742 25.1261 20.0594 24.2816 21.1854C22.8742 21.3261 21.4668 21.6076 20.2001 21.8891C19.9186 21.1854 19.7779 20.4817 19.7779 19.9187ZM17.2446 30.6151C14.9927 29.6299 13.5853 28.5039 13.5853 27.378C13.5853 26.3928 14.9927 25.1261 17.2446 24.1409C17.8075 23.8595 18.3705 23.7187 19.0742 23.578C19.4964 24.8447 19.9186 26.1113 20.4816 27.378C19.9186 28.6447 19.3557 29.9114 19.0742 31.178C18.3705 31.178 17.8075 30.8965 17.2446 30.6151ZM20.7631 39.904C19.9186 39.341 19.4964 37.5114 19.7779 35.1188C19.9186 34.5558 19.9186 33.8521 20.2001 33.1484C21.4668 33.4299 22.7335 33.7114 24.1409 33.8521C24.9853 34.9781 25.8298 36.104 26.815 37.0892C24.7039 39.0596 22.7335 40.1855 21.4668 40.1855C21.1853 40.0448 20.9038 40.0448 20.7631 39.904ZM35.9632 35.1188C36.2447 37.5114 35.9632 39.341 34.978 39.904C34.8373 40.0448 34.5558 40.0448 34.2743 40.0448C33.0076 40.0448 31.0372 39.0596 28.9261 36.9484C29.7706 35.9632 30.7558 34.9781 31.6002 33.7114C33.0076 33.5706 34.415 33.4299 35.541 33.0077C35.6817 33.8521 35.8225 34.5558 35.9632 35.1188ZM38.4965 30.6151C37.9336 30.8965 37.3706 31.0373 36.6669 31.3188C36.2447 30.0521 35.8225 28.7854 35.2595 27.5187C35.8225 26.2521 36.3854 24.8447 36.6669 23.7187C37.3706 23.8595 37.9336 24.1409 38.4965 24.2817C40.7484 25.2669 42.1558 26.3928 42.1558 27.5187C42.1558 28.5039 40.7484 29.7706 38.4965 30.6151Z" fill="white"/>
<path d="M27.9453 30.4749C29.6342 30.4749 30.9009 29.2082 30.9009 27.5193C30.9009 25.8304 29.6342 24.5637 27.9453 24.5637C26.2564 24.5637 24.9897 25.8304 24.9897 27.5193C24.9897 29.2082 26.2564 30.4749 27.9453 30.4749Z" fill="white"/>
</svg>
