<svg width="62" height="62" viewBox="0 0 62 62" fill="none" xmlns="http://www.w3.org/2000/svg">
<g clip-path="url(#clip0_1457_32489)">
<path d="M59.5587 45.0408C56.2506 46.7651 39.114 53.8111 35.4657 55.7131C31.8174 57.6153 29.7907 57.5969 26.9086 56.2191C24.0266 54.8414 5.79025 47.475 2.50516 45.9048C0.863465 45.1202 0 44.4578 0 43.8321V37.5665C0 37.5665 23.7416 32.3981 27.5745 31.023C31.407 29.6479 32.7368 29.5982 35.9984 30.7929C39.2605 31.9881 58.7638 35.5069 61.9874 36.6875L61.9859 42.8645C61.9864 43.4839 61.2426 44.1633 59.5587 45.0408Z" fill="#912626"/>
<path d="M59.5575 38.8128C56.2496 40.5364 39.1135 47.5826 35.4652 49.4843C31.8171 51.3868 29.7904 51.3682 26.9085 49.9904C24.0264 48.6136 5.79068 41.2461 2.50583 39.6768C-0.779013 38.1065 -0.84778 37.0258 2.37895 35.7624C5.60569 34.4984 23.7414 27.3832 27.5746 26.0081C31.4072 24.6334 32.7368 24.5833 35.9984 25.7785C39.2602 26.9732 56.2942 33.7533 59.5173 34.9338C62.7416 36.1156 62.8653 37.0888 59.5575 38.8128Z" fill="#C6302B"/>
<path d="M59.5587 34.9025C56.2506 36.627 39.114 43.6727 35.4657 45.5755C31.8174 47.477 29.7907 47.4586 26.9086 46.0808C24.0264 44.7038 5.79025 37.3367 2.50516 35.7664C0.863465 34.9819 0 34.3204 0 33.6945V27.4282C0 27.4282 23.7416 22.26 27.5745 20.8849C31.407 19.5098 32.7368 19.4599 35.9984 20.6548C39.2608 21.8498 58.764 25.3678 61.9874 26.5487L61.9859 32.7264C61.9864 33.3455 61.2426 34.025 59.5587 34.9025Z" fill="#912626"/>
<path d="M59.5575 28.674C56.2496 30.398 39.1135 37.4438 35.4652 39.3463C31.8171 41.248 29.7904 41.2294 26.9085 39.8516C24.0264 38.4748 5.79068 31.1075 2.50583 29.538C-0.779013 27.9682 -0.84778 26.8873 2.37895 25.6233C5.60569 24.3601 23.7416 17.2444 27.5746 15.8695C31.4072 14.4947 32.7368 14.4448 35.9984 15.6397C39.2602 16.8344 56.2942 23.6141 59.5173 24.795C62.7416 25.9766 62.8653 26.95 59.5575 28.674Z" fill="#C6302B"/>
<path d="M59.5587 24.3888C56.2506 26.1128 39.114 33.1591 35.4657 35.0618C31.8174 36.9635 29.7907 36.9449 26.9086 35.5671C24.0264 34.1901 5.79025 26.8228 2.50516 25.2532C0.863465 24.468 0 23.8062 0 23.181V16.9145C0 16.9145 23.7416 11.7465 27.5745 10.3717C31.407 8.99633 32.7368 8.94693 35.9984 10.1416C39.2608 11.3366 58.764 14.8546 61.9874 16.0355L61.9859 22.213C61.9864 22.8316 61.2426 23.5111 59.5587 24.3888Z" fill="#912626"/>
<path d="M59.5573 18.1601C56.2495 19.8841 39.1134 26.9303 35.4651 28.8321C31.817 30.7338 29.7903 30.7152 26.9084 29.3381C24.0265 27.9604 5.79056 20.5936 2.50596 19.0238C-0.779134 17.4542 -0.847659 16.3731 2.37883 15.1094C5.60557 13.8459 23.7415 6.73114 27.5745 5.3558C31.4071 3.9807 32.7367 3.9313 35.9983 5.12625C39.2601 6.3212 56.294 13.1008 59.5172 14.2817C62.7415 15.4624 62.8652 16.436 59.5573 18.1601Z" fill="#C6302B"/>
<path d="M38.5713 12.0651L33.2419 12.6184L32.0488 15.4891L30.1219 12.2857L23.968 11.7326L28.5599 10.0766L27.1821 7.53467L31.4813 9.21608L35.5342 7.88916L34.4388 10.5176L38.5713 12.0651ZM31.7307 25.9924L21.7844 21.8671L36.0366 19.6794L31.7307 25.9924ZM17.9409 13.6608C22.1481 13.6608 25.5586 14.9828 25.5586 16.6134C25.5586 18.2444 22.1481 19.5663 17.9409 19.5663C13.7338 19.5663 10.3232 18.2442 10.3232 16.6134C10.3232 14.9828 13.7338 13.6608 17.9409 13.6608Z" fill="white"/>
<path d="M44.8652 12.8494L53.3004 16.1826L44.8725 19.5128L44.8652 12.8494Z" fill="#621B1C"/>
<path d="M35.541 16.5415L44.873 12.8501L44.8803 19.5135L43.9652 19.8714L35.541 16.5415Z" fill="#9A2928"/>
</g>
<defs>
<clipPath id="clip0_1457_32489">
<rect width="62" height="62" fill="white"/>
</clipPath>
</defs>
</svg>
