<svg width="62" height="62" viewBox="0 0 62 62" fill="none" xmlns="http://www.w3.org/2000/svg">
<g clip-path="url(#clip0_1457_32422)">
<path d="M31.0194 0C32.7706 0.00321708 34.493 0.151203 36.1672 0.431089V18.4789L48.9623 5.71676C50.3755 6.72047 51.6976 7.8368 52.9199 9.05608C54.1428 10.2754 55.2653 11.5976 56.2715 13.0067L43.4758 25.7688H61.5708C61.8516 27.4385 62 29.15 62 30.9001V30.9419C62 32.692 61.8516 34.4067 61.5708 36.0764H43.4727L56.2715 48.8353C55.2653 50.2444 54.1428 51.5666 52.9236 52.7859H52.9199C51.6976 54.0052 50.3755 55.1247 48.966 56.1252L36.1672 43.363V61.4108C34.496 61.6908 32.7737 61.8386 31.0225 61.8423H30.9775C29.2257 61.8386 27.5101 61.6908 25.8358 61.4108V43.363L13.0408 56.1252C10.215 54.1209 7.74454 51.6535 5.73158 48.8353L18.5273 36.0764H0.43227C0.1484 34.4034 0 32.6823 0 30.9322V30.8424C0.00294149 30.3882 0.0326807 29.8334 0.0753958 29.2594L0.0885856 29.0867C0.215062 27.471 0.43227 25.7688 0.43227 25.7688H18.5273L5.73158 13.0067C6.73467 11.5976 7.85414 10.2786 9.07644 9.06255L9.0826 9.05608C10.3024 7.8368 11.6276 6.72047 13.0408 5.71676L25.8358 18.4789V0.431089C27.5101 0.151203 29.2294 0.00321708 30.9837 0H31.0194ZM31.0163 23.1919H30.9868C28.6838 23.1919 26.4781 23.6134 24.4393 24.379C23.6751 26.409 23.2521 28.6095 23.249 30.9065V30.9354C23.2521 33.2324 23.6751 35.4329 24.4424 37.4629C26.4781 38.2286 28.6838 38.65 30.9868 38.65H31.0163C33.3193 38.65 35.525 38.2286 37.5607 37.4629C38.328 35.4297 38.751 33.2324 38.751 30.9354V30.9065C38.751 28.6095 38.328 26.409 37.5607 24.379C35.525 23.6134 33.3193 23.1919 31.0163 23.1919Z" fill="#FF4A00"/>
</g>
<defs>
<clipPath id="clip0_1457_32422">
<rect width="62" height="62" fill="white"/>
</clipPath>
</defs>
</svg>
